%TF.GenerationSoftware,KiCad,Pcbnew,8.0.4*%
%TF.CreationDate,2024-11-09T14:25:59+01:00*%
%TF.ProjectId,pmw3610_breakout_for_roBa,706d7733-3631-4305-9f62-7265616b6f75,rev?*%
%TF.SameCoordinates,Original*%
%TF.FileFunction,Other,Comment*%
%FSLAX46Y46*%
G04 Gerber Fmt 4.6, Leading zero omitted, Abs format (unit mm)*
G04 Created by KiCad (PCBNEW 8.0.4) date 2024-11-09 14:25:59*
%MOMM*%
%LPD*%
G01*
G04 APERTURE LIST*
%ADD10C,0.100000*%
%ADD11C,0.120000*%
G04 APERTURE END LIST*
D10*
X132500001Y-85386633D02*
X132633334Y-85386633D01*
X132633334Y-85386633D02*
X132700001Y-85419966D01*
X132700001Y-85419966D02*
X132766667Y-85486633D01*
X132766667Y-85486633D02*
X132800001Y-85619966D01*
X132800001Y-85619966D02*
X132800001Y-85853300D01*
X132800001Y-85853300D02*
X132766667Y-85986633D01*
X132766667Y-85986633D02*
X132700001Y-86053300D01*
X132700001Y-86053300D02*
X132633334Y-86086633D01*
X132633334Y-86086633D02*
X132500001Y-86086633D01*
X132500001Y-86086633D02*
X132433334Y-86053300D01*
X132433334Y-86053300D02*
X132366667Y-85986633D01*
X132366667Y-85986633D02*
X132333334Y-85853300D01*
X132333334Y-85853300D02*
X132333334Y-85619966D01*
X132333334Y-85619966D02*
X132366667Y-85486633D01*
X132366667Y-85486633D02*
X132433334Y-85419966D01*
X132433334Y-85419966D02*
X132500001Y-85386633D01*
X133100000Y-85619966D02*
X133100000Y-86319966D01*
X133100000Y-85653300D02*
X133166667Y-85619966D01*
X133166667Y-85619966D02*
X133300000Y-85619966D01*
X133300000Y-85619966D02*
X133366667Y-85653300D01*
X133366667Y-85653300D02*
X133400000Y-85686633D01*
X133400000Y-85686633D02*
X133433334Y-85753300D01*
X133433334Y-85753300D02*
X133433334Y-85953300D01*
X133433334Y-85953300D02*
X133400000Y-86019966D01*
X133400000Y-86019966D02*
X133366667Y-86053300D01*
X133366667Y-86053300D02*
X133300000Y-86086633D01*
X133300000Y-86086633D02*
X133166667Y-86086633D01*
X133166667Y-86086633D02*
X133100000Y-86053300D01*
X133633333Y-85619966D02*
X133900000Y-85619966D01*
X133733333Y-85386633D02*
X133733333Y-85986633D01*
X133733333Y-85986633D02*
X133766667Y-86053300D01*
X133766667Y-86053300D02*
X133833333Y-86086633D01*
X133833333Y-86086633D02*
X133900000Y-86086633D01*
X134133333Y-86086633D02*
X134133333Y-85619966D01*
X134133333Y-85386633D02*
X134100000Y-85419966D01*
X134100000Y-85419966D02*
X134133333Y-85453300D01*
X134133333Y-85453300D02*
X134166667Y-85419966D01*
X134166667Y-85419966D02*
X134133333Y-85386633D01*
X134133333Y-85386633D02*
X134133333Y-85453300D01*
X134766666Y-86053300D02*
X134700000Y-86086633D01*
X134700000Y-86086633D02*
X134566666Y-86086633D01*
X134566666Y-86086633D02*
X134500000Y-86053300D01*
X134500000Y-86053300D02*
X134466666Y-86019966D01*
X134466666Y-86019966D02*
X134433333Y-85953300D01*
X134433333Y-85953300D02*
X134433333Y-85753300D01*
X134433333Y-85753300D02*
X134466666Y-85686633D01*
X134466666Y-85686633D02*
X134500000Y-85653300D01*
X134500000Y-85653300D02*
X134566666Y-85619966D01*
X134566666Y-85619966D02*
X134700000Y-85619966D01*
X134700000Y-85619966D02*
X134766666Y-85653300D01*
X135366666Y-86086633D02*
X135366666Y-85719966D01*
X135366666Y-85719966D02*
X135333333Y-85653300D01*
X135333333Y-85653300D02*
X135266666Y-85619966D01*
X135266666Y-85619966D02*
X135133333Y-85619966D01*
X135133333Y-85619966D02*
X135066666Y-85653300D01*
X135366666Y-86053300D02*
X135300000Y-86086633D01*
X135300000Y-86086633D02*
X135133333Y-86086633D01*
X135133333Y-86086633D02*
X135066666Y-86053300D01*
X135066666Y-86053300D02*
X135033333Y-85986633D01*
X135033333Y-85986633D02*
X135033333Y-85919966D01*
X135033333Y-85919966D02*
X135066666Y-85853300D01*
X135066666Y-85853300D02*
X135133333Y-85819966D01*
X135133333Y-85819966D02*
X135300000Y-85819966D01*
X135300000Y-85819966D02*
X135366666Y-85786633D01*
X135799999Y-86086633D02*
X135733333Y-86053300D01*
X135733333Y-86053300D02*
X135699999Y-85986633D01*
X135699999Y-85986633D02*
X135699999Y-85386633D01*
X136999999Y-86019966D02*
X136966666Y-86053300D01*
X136966666Y-86053300D02*
X136866666Y-86086633D01*
X136866666Y-86086633D02*
X136799999Y-86086633D01*
X136799999Y-86086633D02*
X136699999Y-86053300D01*
X136699999Y-86053300D02*
X136633333Y-85986633D01*
X136633333Y-85986633D02*
X136599999Y-85919966D01*
X136599999Y-85919966D02*
X136566666Y-85786633D01*
X136566666Y-85786633D02*
X136566666Y-85686633D01*
X136566666Y-85686633D02*
X136599999Y-85553300D01*
X136599999Y-85553300D02*
X136633333Y-85486633D01*
X136633333Y-85486633D02*
X136699999Y-85419966D01*
X136699999Y-85419966D02*
X136799999Y-85386633D01*
X136799999Y-85386633D02*
X136866666Y-85386633D01*
X136866666Y-85386633D02*
X136966666Y-85419966D01*
X136966666Y-85419966D02*
X136999999Y-85453300D01*
X137566666Y-86053300D02*
X137499999Y-86086633D01*
X137499999Y-86086633D02*
X137366666Y-86086633D01*
X137366666Y-86086633D02*
X137299999Y-86053300D01*
X137299999Y-86053300D02*
X137266666Y-85986633D01*
X137266666Y-85986633D02*
X137266666Y-85719966D01*
X137266666Y-85719966D02*
X137299999Y-85653300D01*
X137299999Y-85653300D02*
X137366666Y-85619966D01*
X137366666Y-85619966D02*
X137499999Y-85619966D01*
X137499999Y-85619966D02*
X137566666Y-85653300D01*
X137566666Y-85653300D02*
X137599999Y-85719966D01*
X137599999Y-85719966D02*
X137599999Y-85786633D01*
X137599999Y-85786633D02*
X137266666Y-85853300D01*
X137899999Y-85619966D02*
X137899999Y-86086633D01*
X137899999Y-85686633D02*
X137933333Y-85653300D01*
X137933333Y-85653300D02*
X137999999Y-85619966D01*
X137999999Y-85619966D02*
X138099999Y-85619966D01*
X138099999Y-85619966D02*
X138166666Y-85653300D01*
X138166666Y-85653300D02*
X138199999Y-85719966D01*
X138199999Y-85719966D02*
X138199999Y-86086633D01*
X138433332Y-85619966D02*
X138699999Y-85619966D01*
X138533332Y-85386633D02*
X138533332Y-85986633D01*
X138533332Y-85986633D02*
X138566666Y-86053300D01*
X138566666Y-86053300D02*
X138633332Y-86086633D01*
X138633332Y-86086633D02*
X138699999Y-86086633D01*
X139199999Y-86053300D02*
X139133332Y-86086633D01*
X139133332Y-86086633D02*
X138999999Y-86086633D01*
X138999999Y-86086633D02*
X138933332Y-86053300D01*
X138933332Y-86053300D02*
X138899999Y-85986633D01*
X138899999Y-85986633D02*
X138899999Y-85719966D01*
X138899999Y-85719966D02*
X138933332Y-85653300D01*
X138933332Y-85653300D02*
X138999999Y-85619966D01*
X138999999Y-85619966D02*
X139133332Y-85619966D01*
X139133332Y-85619966D02*
X139199999Y-85653300D01*
X139199999Y-85653300D02*
X139233332Y-85719966D01*
X139233332Y-85719966D02*
X139233332Y-85786633D01*
X139233332Y-85786633D02*
X138899999Y-85853300D01*
X139533332Y-86086633D02*
X139533332Y-85619966D01*
X139533332Y-85753300D02*
X139566666Y-85686633D01*
X139566666Y-85686633D02*
X139599999Y-85653300D01*
X139599999Y-85653300D02*
X139666666Y-85619966D01*
X139666666Y-85619966D02*
X139733332Y-85619966D01*
%TO.C,U2*%
X136000000Y-83264000D02*
X136000000Y-85296000D01*
X137016000Y-84280000D02*
X134984000Y-84280000D01*
X136508000Y-84280000D02*
G75*
G02*
X135492000Y-84280000I-508000J0D01*
G01*
X135492000Y-84280000D02*
G75*
G02*
X136508000Y-84280000I508000J0D01*
G01*
%TO.C,J2*%
D11*
X130170000Y-98560000D02*
X141770000Y-98560000D01*
X141770000Y-101560000D01*
X130170000Y-101560000D01*
X130170000Y-98560000D01*
%TD*%
M02*
