%TF.GenerationSoftware,KiCad,Pcbnew,8.0.4*%
%TF.CreationDate,2024-11-09T14:25:59+01:00*%
%TF.ProjectId,pmw3610_breakout_for_roBa,706d7733-3631-4305-9f62-7265616b6f75,rev?*%
%TF.SameCoordinates,Original*%
%TF.FileFunction,Copper,L2,Bot*%
%TF.FilePolarity,Positive*%
%FSLAX46Y46*%
G04 Gerber Fmt 4.6, Leading zero omitted, Abs format (unit mm)*
G04 Created by KiCad (PCBNEW 8.0.4) date 2024-11-09 14:25:59*
%MOMM*%
%LPD*%
G01*
G04 APERTURE LIST*
G04 Aperture macros list*
%AMRoundRect*
0 Rectangle with rounded corners*
0 $1 Rounding radius*
0 $2 $3 $4 $5 $6 $7 $8 $9 X,Y pos of 4 corners*
0 Add a 4 corners polygon primitive as box body*
4,1,4,$2,$3,$4,$5,$6,$7,$8,$9,$2,$3,0*
0 Add four circle primitives for the rounded corners*
1,1,$1+$1,$2,$3*
1,1,$1+$1,$4,$5*
1,1,$1+$1,$6,$7*
1,1,$1+$1,$8,$9*
0 Add four rect primitives between the rounded corners*
20,1,$1+$1,$2,$3,$4,$5,0*
20,1,$1+$1,$4,$5,$6,$7,0*
20,1,$1+$1,$6,$7,$8,$9,0*
20,1,$1+$1,$8,$9,$2,$3,0*%
G04 Aperture macros list end*
%TA.AperFunction,ComponentPad*%
%ADD10RoundRect,0.187500X-0.437500X0.437500X-0.437500X-0.437500X0.437500X-0.437500X0.437500X0.437500X0*%
%TD*%
%TA.AperFunction,ComponentPad*%
%ADD11O,1.250000X1.250000*%
%TD*%
%TA.AperFunction,SMDPad,CuDef*%
%ADD12RoundRect,0.225000X-0.225000X-0.250000X0.225000X-0.250000X0.225000X0.250000X-0.225000X0.250000X0*%
%TD*%
%TA.AperFunction,SMDPad,CuDef*%
%ADD13RoundRect,0.225000X-0.250000X0.225000X-0.250000X-0.225000X0.250000X-0.225000X0.250000X0.225000X0*%
%TD*%
%TA.AperFunction,SMDPad,CuDef*%
%ADD14RoundRect,0.225000X0.225000X0.250000X-0.225000X0.250000X-0.225000X-0.250000X0.225000X-0.250000X0*%
%TD*%
%TA.AperFunction,SMDPad,CuDef*%
%ADD15RoundRect,0.150000X0.587500X0.150000X-0.587500X0.150000X-0.587500X-0.150000X0.587500X-0.150000X0*%
%TD*%
%TA.AperFunction,SMDPad,CuDef*%
%ADD16RoundRect,0.200000X-0.200000X-0.275000X0.200000X-0.275000X0.200000X0.275000X-0.200000X0.275000X0*%
%TD*%
%TA.AperFunction,ViaPad*%
%ADD17C,0.600000*%
%TD*%
%TA.AperFunction,Conductor*%
%ADD18C,0.200000*%
%TD*%
%TA.AperFunction,Conductor*%
%ADD19C,0.500000*%
%TD*%
G04 APERTURE END LIST*
D10*
%TO.P,U2,1,+VCSEL*%
%TO.N,Net-(U2-+VCSEL)*%
X130650000Y-81100000D03*
D11*
%TO.P,U2,2,SDIO*%
%TO.N,SDIO*%
X130650000Y-82880000D03*
%TO.P,U2,3,SCLK*%
%TO.N,SCLK*%
X130650000Y-84660000D03*
%TO.P,U2,4,NC*%
%TO.N,unconnected-(U2-NC-Pad4)*%
X130650000Y-86440000D03*
%TO.P,U2,5,NCS*%
%TO.N,NCS*%
X130650000Y-88220000D03*
%TO.P,U2,6,VDDIO*%
%TO.N,VCC*%
X130650000Y-90000000D03*
%TO.P,U2,7,NRESET*%
%TO.N,Net-(U2-NRESET)*%
X130650000Y-91780000D03*
%TO.P,U2,8,MOTION*%
%TO.N,MOTION*%
X130650000Y-93560000D03*
%TO.P,U2,9,VCP*%
%TO.N,Net-(U2-VCP)*%
X141350000Y-94450000D03*
%TO.P,U2,10,PASS_T*%
%TO.N,Net-(U2-+VCSEL)*%
X141350000Y-92670000D03*
%TO.P,U2,11,GND*%
%TO.N,GND*%
X141350000Y-90890000D03*
%TO.P,U2,12,CP*%
%TO.N,Net-(U2-CP)*%
X141350000Y-89110000D03*
%TO.P,U2,13,CN*%
%TO.N,Net-(U2-CN)*%
X141350000Y-87330000D03*
%TO.P,U2,14,VDD*%
%TO.N,+1V9*%
X141350000Y-85550000D03*
%TO.P,U2,15,XYLASER*%
%TO.N,Net-(U2--VCSEL)*%
X141350000Y-83770000D03*
%TO.P,U2,16,-VCSEL*%
X141350000Y-81990000D03*
%TD*%
D12*
%TO.P,C2,1*%
%TO.N,+1V9*%
X144415000Y-89060000D03*
%TO.P,C2,2*%
%TO.N,GND*%
X145965000Y-89060000D03*
%TD*%
%TO.P,C7,1*%
%TO.N,Net-(U2-VCP)*%
X144415000Y-92570000D03*
%TO.P,C7,2*%
%TO.N,GND*%
X145965000Y-92570000D03*
%TD*%
D13*
%TO.P,C5,1*%
%TO.N,Net-(U2-CN)*%
X145820000Y-85655000D03*
%TO.P,C5,2*%
%TO.N,Net-(U2-CP)*%
X145820000Y-87205000D03*
%TD*%
D14*
%TO.P,C1,1*%
%TO.N,GND*%
X145955000Y-90740000D03*
%TO.P,C1,2*%
%TO.N,VCC*%
X144405000Y-90740000D03*
%TD*%
D12*
%TO.P,C9,1*%
%TO.N,+1V9*%
X144325000Y-83510000D03*
%TO.P,C9,2*%
%TO.N,GND*%
X145875000Y-83510000D03*
%TD*%
D15*
%TO.P,U1,1,GND*%
%TO.N,GND*%
X145477500Y-97177500D03*
%TO.P,U1,2,VO*%
%TO.N,+1V9*%
X145477500Y-99077500D03*
%TO.P,U1,3,VI*%
%TO.N,VCC*%
X143602500Y-98127500D03*
%TD*%
D12*
%TO.P,C8,1*%
%TO.N,+1V9*%
X144305000Y-81520000D03*
%TO.P,C8,2*%
%TO.N,GND*%
X145855000Y-81520000D03*
%TD*%
%TO.P,C6,1*%
%TO.N,Net-(U2-VCP)*%
X144435000Y-94450000D03*
%TO.P,C6,2*%
%TO.N,GND*%
X145985000Y-94450000D03*
%TD*%
D14*
%TO.P,C4,1*%
%TO.N,Net-(U2-+VCSEL)*%
X127735000Y-96810000D03*
%TO.P,C4,2*%
%TO.N,GND*%
X126185000Y-96810000D03*
%TD*%
%TO.P,C3,1*%
%TO.N,VCC*%
X127510000Y-89900000D03*
%TO.P,C3,2*%
%TO.N,GND*%
X125960000Y-89900000D03*
%TD*%
D16*
%TO.P,R1,1*%
%TO.N,Net-(U2-NRESET)*%
X125845000Y-87490000D03*
%TO.P,R1,2*%
%TO.N,VCC*%
X127495000Y-87490000D03*
%TD*%
D17*
%TO.N,VCC*%
X143580000Y-91630000D03*
X126920000Y-91860000D03*
X143580000Y-96500000D03*
%TO.N,GND*%
X146376410Y-88106410D03*
X146470000Y-84590000D03*
X139420000Y-102500000D03*
X142820000Y-88910000D03*
%TO.N,+1V9*%
X142700000Y-90775000D03*
X143860000Y-85055000D03*
X142830000Y-95550000D03*
X144380000Y-87820000D03*
%TO.N,Net-(U2-+VCSEL)*%
X141300000Y-95750000D03*
X126900553Y-94917562D03*
%TO.N,Net-(U2-NRESET)*%
X129070000Y-89020000D03*
%TO.N,MOTION*%
X134665861Y-102170379D03*
X130190000Y-97540000D03*
X130120000Y-98800000D03*
%TO.N,SCLK*%
X127820000Y-93150000D03*
X127198528Y-95660000D03*
%TO.N,NCS*%
X128700000Y-93070000D03*
X128520000Y-100070000D03*
X129770000Y-100040000D03*
X129720000Y-96840000D03*
%TD*%
D18*
%TO.N,VCC*%
X144405000Y-90740000D02*
X144405000Y-90805000D01*
D19*
X144405000Y-90805000D02*
X143580000Y-91630000D01*
X130650000Y-90000000D02*
X127610000Y-90000000D01*
D18*
X127610000Y-90000000D02*
X127510000Y-89900000D01*
D19*
X143580000Y-96500000D02*
X143580000Y-98105000D01*
X127510000Y-89900000D02*
X127510000Y-87505000D01*
X127510000Y-90430000D02*
X127510000Y-89900000D01*
D18*
X130650000Y-90040000D02*
X130630000Y-90060000D01*
X127510000Y-87505000D02*
X127495000Y-87490000D01*
X130650000Y-90000000D02*
X130650000Y-90040000D01*
X143580000Y-98105000D02*
X143602500Y-98127500D01*
D19*
X126920000Y-91860000D02*
X126920000Y-91020000D01*
X126920000Y-91020000D02*
X127510000Y-90430000D01*
%TO.N,GND*%
X146376410Y-88106410D02*
X145965000Y-88517820D01*
X146470000Y-84590000D02*
X145875000Y-83995000D01*
D18*
X145477500Y-97177500D02*
X145477500Y-96867500D01*
D19*
X126000000Y-96625000D02*
X126185000Y-96810000D01*
X145477500Y-96867500D02*
X145985000Y-96360000D01*
X145985000Y-96360000D02*
X145985000Y-94450000D01*
X145965000Y-88517820D02*
X145965000Y-89060000D01*
X126000000Y-89940000D02*
X126000000Y-96625000D01*
X145875000Y-83995000D02*
X145875000Y-83510000D01*
X125960000Y-89900000D02*
X126000000Y-89940000D01*
D18*
X141400000Y-90910000D02*
X141380000Y-90890000D01*
D19*
X142750000Y-88980000D02*
X142750000Y-89560000D01*
X142750000Y-89560000D02*
X141400000Y-90910000D01*
D18*
X141380000Y-90890000D02*
X141350000Y-90890000D01*
X142820000Y-88910000D02*
X142750000Y-88980000D01*
D19*
%TO.N,+1V9*%
X143390000Y-83510000D02*
X144325000Y-83510000D01*
X142637500Y-99077500D02*
X145477500Y-99077500D01*
X144380000Y-87820000D02*
X144380000Y-89025000D01*
X142180000Y-96200000D02*
X142180000Y-98620000D01*
X142830000Y-95550000D02*
X142180000Y-96200000D01*
X141350000Y-85550000D02*
X143390000Y-83510000D01*
X143860000Y-85055000D02*
X141845000Y-85055000D01*
D18*
X144380000Y-89025000D02*
X144415000Y-89060000D01*
D19*
X143360000Y-83540000D02*
X143360000Y-82190000D01*
X142180000Y-98620000D02*
X142637500Y-99077500D01*
D18*
X141845000Y-85055000D02*
X141350000Y-85550000D01*
X144030000Y-81520000D02*
X144305000Y-81520000D01*
D19*
X143360000Y-82190000D02*
X144030000Y-81520000D01*
X142700000Y-90775000D02*
X144415000Y-89060000D01*
D18*
%TO.N,Net-(U2-+VCSEL)*%
X126900553Y-94917562D02*
X126598528Y-95219587D01*
X126598528Y-95219587D02*
X126598528Y-95908528D01*
X140370000Y-98140000D02*
X129065000Y-98140000D01*
X129065000Y-98140000D02*
X127735000Y-96810000D01*
X127500000Y-96810000D02*
X127735000Y-96810000D01*
X141300000Y-97210000D02*
X140370000Y-98140000D01*
X126598528Y-95908528D02*
X127500000Y-96810000D01*
X141300000Y-95750000D02*
X141300000Y-97210000D01*
%TO.N,Net-(U2-CP)*%
X145795000Y-87180000D02*
X145820000Y-87205000D01*
X141350000Y-89110000D02*
X143280000Y-87180000D01*
X143280000Y-87180000D02*
X145795000Y-87180000D01*
%TO.N,Net-(U2-CN)*%
X143025000Y-85655000D02*
X145820000Y-85655000D01*
X141350000Y-87330000D02*
X143025000Y-85655000D01*
%TO.N,Net-(U2-VCP)*%
X141350000Y-94450000D02*
X141470000Y-94450000D01*
X144415000Y-92570000D02*
X144435000Y-92590000D01*
X141550000Y-94450000D02*
X144435000Y-94450000D01*
X144435000Y-92590000D02*
X144435000Y-94450000D01*
X141470000Y-94450000D02*
X141510000Y-94410000D01*
X141510000Y-94410000D02*
X141550000Y-94450000D01*
%TO.N,Net-(U2-NRESET)*%
X125845000Y-87490000D02*
X126620000Y-86715000D01*
X126620000Y-86715000D02*
X127915000Y-86715000D01*
X125845000Y-87490000D02*
X125845000Y-87475000D01*
X129070000Y-87870000D02*
X129070000Y-89020000D01*
X127915000Y-86715000D02*
X129070000Y-87870000D01*
%TO.N,MOTION*%
X130120000Y-98800000D02*
X133490379Y-102170379D01*
X130190000Y-97540000D02*
X130650000Y-97080000D01*
X133490379Y-102170379D02*
X134665861Y-102170379D01*
X130650000Y-97080000D02*
X130650000Y-93560000D01*
%TO.N,SCLK*%
X127820000Y-95038528D02*
X127198528Y-95660000D01*
X127820000Y-93150000D02*
X127820000Y-95038528D01*
%TO.N,NCS*%
X129240000Y-96360000D02*
X129240000Y-93610000D01*
X128550000Y-100040000D02*
X129770000Y-100040000D01*
X129720000Y-96840000D02*
X129240000Y-96360000D01*
X128520000Y-100070000D02*
X128550000Y-100040000D01*
X129240000Y-93610000D02*
X128700000Y-93070000D01*
%TD*%
%TA.AperFunction,Conductor*%
%TO.N,GND*%
G36*
X146158039Y-88829685D02*
G01*
X146203794Y-88882489D01*
X146215000Y-88934000D01*
X146215000Y-90016638D01*
X146205000Y-90050693D01*
X146205000Y-91573880D01*
X146212166Y-91587004D01*
X146215000Y-91613362D01*
X146215000Y-93445566D01*
X146232166Y-93477004D01*
X146235000Y-93503362D01*
X146235000Y-95424999D01*
X146258308Y-95424999D01*
X146258322Y-95424998D01*
X146357607Y-95414855D01*
X146518481Y-95361547D01*
X146518492Y-95361542D01*
X146662728Y-95272575D01*
X146662732Y-95272572D01*
X146787680Y-95147625D01*
X146789811Y-95149756D01*
X146835693Y-95117231D01*
X146905491Y-95114055D01*
X146965925Y-95149119D01*
X146997809Y-95211289D01*
X147000000Y-95234497D01*
X147000000Y-102498473D01*
X146999963Y-102501511D01*
X146997854Y-102587580D01*
X146995508Y-102608733D01*
X146961639Y-102779006D01*
X146954583Y-102802268D01*
X146888728Y-102961254D01*
X146877269Y-102982692D01*
X146781664Y-103125775D01*
X146766243Y-103144565D01*
X146644565Y-103266243D01*
X146625775Y-103281664D01*
X146482692Y-103377269D01*
X146461254Y-103388728D01*
X146302268Y-103454583D01*
X146279006Y-103461639D01*
X146108733Y-103495508D01*
X146087580Y-103497854D01*
X146004250Y-103499895D01*
X146001509Y-103499963D01*
X145998473Y-103500000D01*
X126001527Y-103500000D01*
X125998490Y-103499963D01*
X125912420Y-103497854D01*
X125891266Y-103495508D01*
X125720993Y-103461639D01*
X125697731Y-103454583D01*
X125538745Y-103388728D01*
X125517307Y-103377269D01*
X125374224Y-103281664D01*
X125355434Y-103266243D01*
X125233756Y-103144565D01*
X125218335Y-103125775D01*
X125122730Y-102982692D01*
X125111271Y-102961254D01*
X125045413Y-102802261D01*
X125038362Y-102779013D01*
X125004490Y-102608728D01*
X125002145Y-102587583D01*
X125000037Y-102501509D01*
X125000000Y-102498473D01*
X125000000Y-97234072D01*
X125019685Y-97167033D01*
X125072489Y-97121278D01*
X125141647Y-97111334D01*
X125205203Y-97140359D01*
X125242977Y-97199137D01*
X125245059Y-97207352D01*
X125298452Y-97368481D01*
X125298457Y-97368492D01*
X125387424Y-97512728D01*
X125387427Y-97512732D01*
X125507267Y-97632572D01*
X125507271Y-97632575D01*
X125651507Y-97721542D01*
X125651518Y-97721547D01*
X125812393Y-97774855D01*
X125911683Y-97784999D01*
X125935000Y-97784998D01*
X125935000Y-96684000D01*
X125954685Y-96616961D01*
X126007489Y-96571206D01*
X126059000Y-96560000D01*
X126311000Y-96560000D01*
X126378039Y-96579685D01*
X126423794Y-96632489D01*
X126435000Y-96684000D01*
X126435000Y-97784999D01*
X126458308Y-97784999D01*
X126458322Y-97784998D01*
X126557607Y-97774855D01*
X126718481Y-97721547D01*
X126718492Y-97721542D01*
X126862731Y-97632573D01*
X126871959Y-97623345D01*
X126933279Y-97589856D01*
X127002971Y-97594835D01*
X127047327Y-97623339D01*
X127056955Y-97632967D01*
X127056959Y-97632970D01*
X127201294Y-97721998D01*
X127201297Y-97721999D01*
X127201303Y-97722003D01*
X127362292Y-97775349D01*
X127461655Y-97785500D01*
X127809902Y-97785499D01*
X127876941Y-97805183D01*
X127897583Y-97821818D01*
X128580139Y-98504374D01*
X128580149Y-98504385D01*
X128584479Y-98508715D01*
X128584480Y-98508716D01*
X128696284Y-98620520D01*
X128776967Y-98667102D01*
X128833215Y-98699577D01*
X128985943Y-98740501D01*
X128985946Y-98740501D01*
X129151653Y-98740501D01*
X129151669Y-98740500D01*
X129196918Y-98740500D01*
X129263957Y-98760185D01*
X129309712Y-98812989D01*
X129320138Y-98850617D01*
X129334630Y-98979249D01*
X129334631Y-98979254D01*
X129394212Y-99149525D01*
X129409863Y-99174434D01*
X129428863Y-99241671D01*
X129408495Y-99308506D01*
X129370842Y-99345398D01*
X129267739Y-99410183D01*
X129264903Y-99412445D01*
X129262722Y-99413335D01*
X129261843Y-99413888D01*
X129261746Y-99413733D01*
X129200217Y-99438855D01*
X129187588Y-99439500D01*
X129056897Y-99439500D01*
X128990925Y-99420494D01*
X128869522Y-99344211D01*
X128699254Y-99284631D01*
X128699249Y-99284630D01*
X128520004Y-99264435D01*
X128519996Y-99264435D01*
X128340750Y-99284630D01*
X128340745Y-99284631D01*
X128170476Y-99344211D01*
X128017737Y-99440184D01*
X127890184Y-99567737D01*
X127794211Y-99720476D01*
X127734631Y-99890745D01*
X127734630Y-99890750D01*
X127714435Y-100069996D01*
X127714435Y-100070003D01*
X127734630Y-100249249D01*
X127734631Y-100249254D01*
X127794211Y-100419523D01*
X127871334Y-100542262D01*
X127890184Y-100572262D01*
X128017738Y-100699816D01*
X128170478Y-100795789D01*
X128255010Y-100825368D01*
X128340745Y-100855368D01*
X128340750Y-100855369D01*
X128519996Y-100875565D01*
X128520000Y-100875565D01*
X128520004Y-100875565D01*
X128699249Y-100855369D01*
X128699252Y-100855368D01*
X128699255Y-100855368D01*
X128869522Y-100795789D01*
X129022262Y-100699816D01*
X129045259Y-100676819D01*
X129106582Y-100643334D01*
X129132940Y-100640500D01*
X129187588Y-100640500D01*
X129254627Y-100660185D01*
X129264903Y-100667555D01*
X129267736Y-100669814D01*
X129267738Y-100669816D01*
X129420478Y-100765789D01*
X129590745Y-100825368D01*
X129590750Y-100825369D01*
X129769996Y-100845565D01*
X129770000Y-100845565D01*
X129770004Y-100845565D01*
X129949249Y-100825369D01*
X129949252Y-100825368D01*
X129949255Y-100825368D01*
X130119522Y-100765789D01*
X130272262Y-100669816D01*
X130399816Y-100542262D01*
X130495789Y-100389522D01*
X130525092Y-100305777D01*
X130565813Y-100249001D01*
X130630766Y-100223253D01*
X130699327Y-100236709D01*
X130729814Y-100259049D01*
X133121663Y-102650899D01*
X133121665Y-102650900D01*
X133121669Y-102650903D01*
X133258588Y-102729952D01*
X133258595Y-102729956D01*
X133411322Y-102770880D01*
X133411324Y-102770880D01*
X133577033Y-102770880D01*
X133577049Y-102770879D01*
X134083449Y-102770879D01*
X134150488Y-102790564D01*
X134160764Y-102797934D01*
X134163597Y-102800193D01*
X134163599Y-102800195D01*
X134316339Y-102896168D01*
X134486606Y-102955747D01*
X134486611Y-102955748D01*
X134665857Y-102975944D01*
X134665861Y-102975944D01*
X134665865Y-102975944D01*
X134845110Y-102955748D01*
X134845113Y-102955747D01*
X134845116Y-102955747D01*
X135015383Y-102896168D01*
X135168123Y-102800195D01*
X135295677Y-102672641D01*
X135391650Y-102519901D01*
X135451229Y-102349634D01*
X135471426Y-102170379D01*
X135451229Y-101991124D01*
X135391650Y-101820857D01*
X135295677Y-101668117D01*
X135168123Y-101540563D01*
X135156978Y-101533560D01*
X135015384Y-101444590D01*
X134845115Y-101385010D01*
X134845110Y-101385009D01*
X134665865Y-101364814D01*
X134665857Y-101364814D01*
X134486611Y-101385009D01*
X134486606Y-101385010D01*
X134316337Y-101444590D01*
X134163597Y-101540564D01*
X134160764Y-101542824D01*
X134158585Y-101543713D01*
X134157703Y-101544268D01*
X134157605Y-101544113D01*
X134096078Y-101569234D01*
X134083449Y-101569879D01*
X133790477Y-101569879D01*
X133723438Y-101550194D01*
X133702796Y-101533560D01*
X132418237Y-100249001D01*
X131121415Y-98952180D01*
X131087931Y-98890858D01*
X131092915Y-98821166D01*
X131134787Y-98765233D01*
X131200251Y-98740816D01*
X131209097Y-98740500D01*
X140283331Y-98740500D01*
X140283347Y-98740501D01*
X140290943Y-98740501D01*
X140449054Y-98740501D01*
X140449057Y-98740501D01*
X140601785Y-98699577D01*
X140658033Y-98667102D01*
X140738716Y-98620520D01*
X140850520Y-98508716D01*
X140850520Y-98508714D01*
X140860724Y-98498511D01*
X140860727Y-98498506D01*
X141217820Y-98141414D01*
X141279142Y-98107930D01*
X141348834Y-98112914D01*
X141404767Y-98154786D01*
X141429184Y-98220250D01*
X141429500Y-98229096D01*
X141429500Y-98693918D01*
X141429500Y-98693920D01*
X141429499Y-98693920D01*
X141458340Y-98838907D01*
X141458343Y-98838917D01*
X141514914Y-98975492D01*
X141533682Y-99003580D01*
X141533683Y-99003583D01*
X141597046Y-99098414D01*
X141597052Y-99098421D01*
X142159084Y-99660452D01*
X142159086Y-99660454D01*
X142183528Y-99676784D01*
X142220195Y-99701284D01*
X142282005Y-99742584D01*
X142337272Y-99765476D01*
X142337273Y-99765477D01*
X142370955Y-99779428D01*
X142418588Y-99799159D01*
X142534741Y-99822263D01*
X142553968Y-99826087D01*
X142563581Y-99828000D01*
X142563582Y-99828000D01*
X142563583Y-99828000D01*
X142711418Y-99828000D01*
X144607672Y-99828000D01*
X144642267Y-99832924D01*
X144787426Y-99875097D01*
X144787429Y-99875097D01*
X144787431Y-99875098D01*
X144824306Y-99878000D01*
X144824314Y-99878000D01*
X146130686Y-99878000D01*
X146130694Y-99878000D01*
X146167569Y-99875098D01*
X146167571Y-99875097D01*
X146167573Y-99875097D01*
X146209191Y-99863005D01*
X146325398Y-99829244D01*
X146466865Y-99745581D01*
X146583081Y-99629365D01*
X146666744Y-99487898D01*
X146700505Y-99371691D01*
X146712597Y-99330073D01*
X146712598Y-99330067D01*
X146715499Y-99293201D01*
X146715500Y-99293194D01*
X146715500Y-98861806D01*
X146712598Y-98824931D01*
X146711504Y-98821166D01*
X146666745Y-98667106D01*
X146666744Y-98667102D01*
X146583082Y-98525637D01*
X146583081Y-98525635D01*
X146583079Y-98525633D01*
X146583076Y-98525629D01*
X146466870Y-98409423D01*
X146466862Y-98409417D01*
X146325396Y-98325755D01*
X146325393Y-98325754D01*
X146167573Y-98279902D01*
X146167567Y-98279901D01*
X146130701Y-98277000D01*
X146130694Y-98277000D01*
X144964500Y-98277000D01*
X144897461Y-98257315D01*
X144851706Y-98204511D01*
X144840500Y-98153000D01*
X144840500Y-98101500D01*
X144860185Y-98034461D01*
X144912989Y-97988706D01*
X144964500Y-97977500D01*
X145227500Y-97977500D01*
X145727500Y-97977500D01*
X146130634Y-97977500D01*
X146130649Y-97977499D01*
X146167489Y-97974600D01*
X146167495Y-97974599D01*
X146325193Y-97928783D01*
X146325196Y-97928782D01*
X146466552Y-97845185D01*
X146466561Y-97845178D01*
X146582678Y-97729061D01*
X146582685Y-97729052D01*
X146666281Y-97587698D01*
X146712100Y-97429986D01*
X146712295Y-97427501D01*
X146712295Y-97427500D01*
X145727500Y-97427500D01*
X145727500Y-97977500D01*
X145227500Y-97977500D01*
X145227500Y-96927500D01*
X145727500Y-96927500D01*
X146712295Y-96927500D01*
X146712295Y-96927498D01*
X146712100Y-96925013D01*
X146666281Y-96767301D01*
X146582685Y-96625947D01*
X146582678Y-96625938D01*
X146466561Y-96509821D01*
X146466552Y-96509814D01*
X146325196Y-96426217D01*
X146325193Y-96426216D01*
X146167495Y-96380400D01*
X146167489Y-96380399D01*
X146130649Y-96377500D01*
X145727500Y-96377500D01*
X145727500Y-96927500D01*
X145227500Y-96927500D01*
X145227500Y-96377500D01*
X144824350Y-96377500D01*
X144787510Y-96380399D01*
X144787504Y-96380400D01*
X144629806Y-96426216D01*
X144629805Y-96426216D01*
X144557920Y-96468728D01*
X144490195Y-96485909D01*
X144423933Y-96463749D01*
X144380171Y-96409282D01*
X144371580Y-96375877D01*
X144365369Y-96320750D01*
X144365368Y-96320745D01*
X144341144Y-96251518D01*
X144305789Y-96150478D01*
X144209816Y-95997738D01*
X144082262Y-95870184D01*
X144030341Y-95837560D01*
X143929521Y-95774210D01*
X143759249Y-95714630D01*
X143742018Y-95712689D01*
X143677604Y-95685622D01*
X143638049Y-95628027D01*
X143632682Y-95575583D01*
X143633228Y-95570745D01*
X143635565Y-95550000D01*
X143621479Y-95424982D01*
X143633533Y-95356161D01*
X143680882Y-95304781D01*
X143748493Y-95287157D01*
X143809796Y-95305561D01*
X143901294Y-95361998D01*
X143901297Y-95361999D01*
X143901303Y-95362003D01*
X144062292Y-95415349D01*
X144161655Y-95425500D01*
X144708344Y-95425499D01*
X144708352Y-95425498D01*
X144708355Y-95425498D01*
X144762760Y-95419940D01*
X144807708Y-95415349D01*
X144968697Y-95362003D01*
X145113044Y-95272968D01*
X145122668Y-95263343D01*
X145183987Y-95229856D01*
X145253679Y-95234835D01*
X145298034Y-95263339D01*
X145307267Y-95272572D01*
X145307271Y-95272575D01*
X145451507Y-95361542D01*
X145451518Y-95361547D01*
X145612393Y-95414855D01*
X145711683Y-95424999D01*
X145735000Y-95424998D01*
X145735000Y-93574433D01*
X145717834Y-93542996D01*
X145715000Y-93516638D01*
X145715000Y-91736119D01*
X145707834Y-91722996D01*
X145705000Y-91696638D01*
X145705000Y-89783362D01*
X145715000Y-89749306D01*
X145715000Y-88934000D01*
X145734685Y-88866961D01*
X145787489Y-88821206D01*
X145839000Y-88810000D01*
X146091000Y-88810000D01*
X146158039Y-88829685D01*
G37*
%TD.AperFunction*%
%TA.AperFunction,Conductor*%
G36*
X126678834Y-88224338D02*
G01*
X126734767Y-88266210D01*
X126759184Y-88331674D01*
X126759500Y-88340520D01*
X126759500Y-88930359D01*
X126739815Y-88997398D01*
X126687011Y-89043153D01*
X126617853Y-89053097D01*
X126570403Y-89035897D01*
X126493492Y-88988457D01*
X126493481Y-88988452D01*
X126332606Y-88935144D01*
X126233322Y-88925000D01*
X126210000Y-88925000D01*
X126210000Y-90748277D01*
X126200562Y-90795725D01*
X126198342Y-90801087D01*
X126198342Y-90801088D01*
X126198341Y-90801091D01*
X126198340Y-90801092D01*
X126169500Y-90946079D01*
X126169500Y-91560028D01*
X126162542Y-91600982D01*
X126134631Y-91680747D01*
X126114435Y-91859996D01*
X126114435Y-91860003D01*
X126134630Y-92039249D01*
X126134631Y-92039254D01*
X126194211Y-92209523D01*
X126281418Y-92348311D01*
X126290184Y-92362262D01*
X126417738Y-92489816D01*
X126456690Y-92514291D01*
X126558659Y-92578363D01*
X126570478Y-92585789D01*
X126719900Y-92638074D01*
X126740745Y-92645368D01*
X126740750Y-92645369D01*
X126919996Y-92665565D01*
X126920000Y-92665565D01*
X126920002Y-92665565D01*
X126954401Y-92661689D01*
X127023223Y-92673743D01*
X127074602Y-92721092D01*
X127092227Y-92788702D01*
X127085327Y-92825863D01*
X127034632Y-92970742D01*
X127034630Y-92970750D01*
X127014435Y-93149996D01*
X127014435Y-93150003D01*
X127034630Y-93329249D01*
X127034631Y-93329254D01*
X127094211Y-93499523D01*
X127130591Y-93557421D01*
X127174578Y-93627426D01*
X127190185Y-93652263D01*
X127192445Y-93655097D01*
X127193334Y-93657275D01*
X127193889Y-93658158D01*
X127193734Y-93658255D01*
X127218855Y-93719783D01*
X127219500Y-93732412D01*
X127219500Y-94009177D01*
X127199815Y-94076216D01*
X127147011Y-94121971D01*
X127081617Y-94132397D01*
X126900557Y-94111997D01*
X126900549Y-94111997D01*
X126721303Y-94132192D01*
X126721298Y-94132193D01*
X126551029Y-94191773D01*
X126398290Y-94287746D01*
X126270737Y-94415299D01*
X126174763Y-94568040D01*
X126115183Y-94738312D01*
X126101638Y-94858531D01*
X126085807Y-94906644D01*
X126072026Y-94930515D01*
X126072024Y-94930518D01*
X126038951Y-94987801D01*
X126038951Y-94987802D01*
X125998027Y-95140530D01*
X125998027Y-95140532D01*
X125998027Y-95308633D01*
X125998028Y-95308646D01*
X125998028Y-95714202D01*
X125978343Y-95781241D01*
X125925539Y-95826996D01*
X125886630Y-95837560D01*
X125812392Y-95845144D01*
X125651518Y-95898452D01*
X125651507Y-95898457D01*
X125507271Y-95987424D01*
X125507267Y-95987427D01*
X125387427Y-96107267D01*
X125387424Y-96107271D01*
X125298457Y-96251507D01*
X125298452Y-96251518D01*
X125243014Y-96418821D01*
X125241726Y-96418394D01*
X125211971Y-96473318D01*
X125150759Y-96507005D01*
X125081051Y-96502251D01*
X125024979Y-96460565D01*
X125000346Y-96395182D01*
X125000000Y-96385927D01*
X125000000Y-90739667D01*
X125019685Y-90672628D01*
X125072489Y-90626873D01*
X125141647Y-90616929D01*
X125205203Y-90645954D01*
X125211681Y-90651986D01*
X125282267Y-90722572D01*
X125282271Y-90722575D01*
X125426507Y-90811542D01*
X125426518Y-90811547D01*
X125587393Y-90864855D01*
X125686683Y-90874999D01*
X125710000Y-90874998D01*
X125710000Y-88924999D01*
X125686693Y-88925000D01*
X125686674Y-88925001D01*
X125587392Y-88935144D01*
X125426518Y-88988452D01*
X125426507Y-88988457D01*
X125282271Y-89077424D01*
X125282267Y-89077427D01*
X125211681Y-89148014D01*
X125150358Y-89181499D01*
X125080666Y-89176515D01*
X125024733Y-89134643D01*
X125000316Y-89069179D01*
X125000000Y-89060333D01*
X125000000Y-88410020D01*
X125019685Y-88342981D01*
X125072489Y-88297226D01*
X125141647Y-88287282D01*
X125205203Y-88316307D01*
X125208938Y-88319785D01*
X125209811Y-88320469D01*
X125209813Y-88320470D01*
X125209815Y-88320472D01*
X125355394Y-88408478D01*
X125517804Y-88459086D01*
X125588384Y-88465500D01*
X125588387Y-88465500D01*
X126101613Y-88465500D01*
X126101616Y-88465500D01*
X126172196Y-88459086D01*
X126334606Y-88408478D01*
X126480185Y-88320472D01*
X126513375Y-88287282D01*
X126547819Y-88252839D01*
X126609142Y-88219354D01*
X126678834Y-88224338D01*
G37*
%TD.AperFunction*%
%TA.AperFunction,Conductor*%
G36*
X143514750Y-87896998D02*
G01*
X143570683Y-87938870D01*
X143592025Y-87992709D01*
X143593083Y-87992468D01*
X143594631Y-87999254D01*
X143622542Y-88079017D01*
X143629500Y-88119972D01*
X143629500Y-88301575D01*
X143611039Y-88366672D01*
X143527998Y-88501300D01*
X143527996Y-88501305D01*
X143474651Y-88662290D01*
X143464500Y-88761647D01*
X143464500Y-88897769D01*
X143444815Y-88964808D01*
X143428181Y-88985450D01*
X142391937Y-90021693D01*
X142355873Y-90044370D01*
X142356750Y-90046191D01*
X142350481Y-90049209D01*
X142350478Y-90049211D01*
X142350474Y-90049213D01*
X142344204Y-90052233D01*
X142343319Y-90050396D01*
X142285649Y-90066681D01*
X142218818Y-90046301D01*
X142173614Y-89993024D01*
X142164390Y-89923766D01*
X142187982Y-89867964D01*
X142311019Y-89705038D01*
X142403994Y-89518319D01*
X142461076Y-89317696D01*
X142480322Y-89110000D01*
X142461855Y-88910710D01*
X142475270Y-88842141D01*
X142497642Y-88811591D01*
X143383736Y-87925497D01*
X143445058Y-87892014D01*
X143514750Y-87896998D01*
G37*
%TD.AperFunction*%
%TA.AperFunction,Conductor*%
G36*
X146931358Y-87587402D02*
G01*
X146982558Y-87634945D01*
X147000000Y-87698359D01*
X147000000Y-88304960D01*
X146980315Y-88371999D01*
X146927511Y-88417754D01*
X146858353Y-88427698D01*
X146794797Y-88398673D01*
X146770462Y-88370058D01*
X146762573Y-88357268D01*
X146642731Y-88237426D01*
X146557165Y-88184648D01*
X146510441Y-88132700D01*
X146499220Y-88063737D01*
X146527063Y-87999655D01*
X146534560Y-87991451D01*
X146642968Y-87883044D01*
X146732003Y-87738697D01*
X146758294Y-87659354D01*
X146798067Y-87601910D01*
X146862583Y-87575087D01*
X146931358Y-87587402D01*
G37*
%TD.AperFunction*%
%TA.AperFunction,Conductor*%
G36*
X146943859Y-84012662D02*
G01*
X146989196Y-84065824D01*
X147000000Y-84116446D01*
X147000000Y-85161640D01*
X146980315Y-85228679D01*
X146927511Y-85274434D01*
X146858353Y-85284378D01*
X146794797Y-85255353D01*
X146758294Y-85200644D01*
X146741245Y-85149194D01*
X146732003Y-85121303D01*
X146731999Y-85121297D01*
X146731998Y-85121294D01*
X146642970Y-84976959D01*
X146642967Y-84976955D01*
X146523044Y-84857032D01*
X146523040Y-84857029D01*
X146378705Y-84768001D01*
X146378699Y-84767998D01*
X146378697Y-84767997D01*
X146323695Y-84749771D01*
X146221458Y-84715893D01*
X146164014Y-84676120D01*
X146137191Y-84611604D01*
X146149506Y-84542828D01*
X146197049Y-84491628D01*
X146241155Y-84477049D01*
X146240989Y-84476273D01*
X146247603Y-84474857D01*
X146408481Y-84421547D01*
X146408492Y-84421542D01*
X146552728Y-84332575D01*
X146552732Y-84332572D01*
X146672572Y-84212732D01*
X146672575Y-84212728D01*
X146761544Y-84068488D01*
X146763615Y-84064048D01*
X146809784Y-84011606D01*
X146876976Y-83992450D01*
X146943859Y-84012662D01*
G37*
%TD.AperFunction*%
%TA.AperFunction,Conductor*%
G36*
X146001509Y-80000037D02*
G01*
X146007232Y-80000177D01*
X146087583Y-80002145D01*
X146108728Y-80004490D01*
X146279013Y-80038362D01*
X146302261Y-80045413D01*
X146461257Y-80111272D01*
X146482689Y-80122728D01*
X146615817Y-80211681D01*
X146625775Y-80218335D01*
X146644565Y-80233756D01*
X146766243Y-80355434D01*
X146781664Y-80374224D01*
X146877269Y-80517307D01*
X146888728Y-80538745D01*
X146954583Y-80697731D01*
X146961639Y-80720993D01*
X146995508Y-80891266D01*
X146997854Y-80912421D01*
X146999209Y-80967743D01*
X146981172Y-81035244D01*
X146929504Y-81082278D01*
X146860610Y-81093912D01*
X146796362Y-81066452D01*
X146757540Y-81009782D01*
X146741548Y-80961520D01*
X146741542Y-80961507D01*
X146652575Y-80817271D01*
X146652572Y-80817267D01*
X146532732Y-80697427D01*
X146532728Y-80697424D01*
X146388492Y-80608457D01*
X146388481Y-80608452D01*
X146227606Y-80555144D01*
X146128322Y-80545000D01*
X146105000Y-80545000D01*
X146105000Y-82505566D01*
X146122166Y-82537004D01*
X146125000Y-82563362D01*
X146125000Y-83636000D01*
X146105315Y-83703039D01*
X146052511Y-83748794D01*
X146001000Y-83760000D01*
X145749000Y-83760000D01*
X145681961Y-83740315D01*
X145636206Y-83687511D01*
X145625000Y-83636000D01*
X145625000Y-82524433D01*
X145607834Y-82492996D01*
X145605000Y-82466638D01*
X145605000Y-80544999D01*
X145581693Y-80545000D01*
X145581674Y-80545001D01*
X145482392Y-80555144D01*
X145321518Y-80608452D01*
X145321507Y-80608457D01*
X145177271Y-80697424D01*
X145177265Y-80697428D01*
X145168031Y-80706663D01*
X145106707Y-80740146D01*
X145037015Y-80735159D01*
X144992672Y-80706660D01*
X144983044Y-80697032D01*
X144983040Y-80697029D01*
X144838705Y-80608001D01*
X144838699Y-80607998D01*
X144838697Y-80607997D01*
X144835365Y-80606893D01*
X144677709Y-80554651D01*
X144578346Y-80544500D01*
X144031662Y-80544500D01*
X144031644Y-80544501D01*
X143932292Y-80554650D01*
X143932289Y-80554651D01*
X143771305Y-80607996D01*
X143771294Y-80608001D01*
X143626959Y-80697029D01*
X143626955Y-80697032D01*
X143507032Y-80816955D01*
X143507029Y-80816959D01*
X143418001Y-80961294D01*
X143417996Y-80961305D01*
X143373057Y-81096922D01*
X143343032Y-81145599D01*
X142777050Y-81711580D01*
X142777044Y-81711588D01*
X142727812Y-81785268D01*
X142727813Y-81785269D01*
X142694917Y-81834502D01*
X142694461Y-81835356D01*
X142694104Y-81835718D01*
X142691532Y-81839569D01*
X142690801Y-81839080D01*
X142645495Y-81885197D01*
X142577357Y-81900654D01*
X142511678Y-81876818D01*
X142469313Y-81821258D01*
X142461635Y-81788337D01*
X142461351Y-81785269D01*
X142461076Y-81782304D01*
X142403994Y-81581681D01*
X142311019Y-81394962D01*
X142185318Y-81228507D01*
X142031171Y-81087984D01*
X141853828Y-80978177D01*
X141853827Y-80978176D01*
X141684092Y-80912421D01*
X141659327Y-80902827D01*
X141454293Y-80864500D01*
X141245707Y-80864500D01*
X141040673Y-80902827D01*
X141040670Y-80902827D01*
X141040670Y-80902828D01*
X140846172Y-80978176D01*
X140846171Y-80978177D01*
X140668830Y-81087983D01*
X140576338Y-81172300D01*
X140513533Y-81202916D01*
X140444146Y-81194718D01*
X140390206Y-81150308D01*
X140368839Y-81083786D01*
X140368800Y-81080662D01*
X140368800Y-80124000D01*
X140388485Y-80056961D01*
X140441289Y-80011206D01*
X140492800Y-80000000D01*
X145998473Y-80000000D01*
X146001509Y-80000037D01*
G37*
%TD.AperFunction*%
%TD*%
M02*
