M48
; DRILL file {KiCad 8.0.4} date 2024-11-09T14:25:59+0100
; FORMAT={-:-/ absolute / inch / decimal}
; #@! TF.CreationDate,2024-11-09T14:25:59+01:00
; #@! TF.GenerationSoftware,Kicad,Pcbnew,8.0.4
; #@! TF.FileFunction,Plated,1,2,PTH
FMAT,2
INCH
; #@! TA.AperFunction,Plated,PTH,ViaDrill
T1C0.0118
; #@! TA.AperFunction,Plated,PTH,ComponentDrill
T2C0.0295
%
G90
G05
T1
X4.9961Y-3.7369
X4.9969Y-3.6165
X5.0078Y-3.7661
X5.0323Y-3.6673
X5.0598Y-3.9398
X5.0669Y-3.6642
X5.0815Y-3.5047
X5.1071Y-3.8126
X5.1091Y-3.9386
X5.1228Y-3.8898
X5.1256Y-3.8402
X5.3018Y-4.0225
X5.489Y-4.0354
X5.563Y-3.7697
X5.6181Y-3.5738
X5.6228Y-3.5004
X5.6232Y-3.7618
X5.6528Y-3.6075
X5.6528Y-3.7992
X5.6638Y-3.3486
X5.6843Y-3.4575
X5.7629Y-3.4688
X5.7665Y-3.3303
T2
X5.1437Y-3.1929
X5.1437Y-3.263
X5.1437Y-3.3331
X5.1437Y-3.4031
X5.1437Y-3.4732
X5.1437Y-3.5433
X5.1437Y-3.6134
X5.1437Y-3.6835
X5.565Y-3.228
X5.565Y-3.298
X5.565Y-3.3681
X5.565Y-3.4382
X5.565Y-3.5083
X5.565Y-3.5783
X5.565Y-3.6484
X5.565Y-3.7185
M30
