%TF.GenerationSoftware,KiCad,Pcbnew,8.0.4*%
%TF.CreationDate,2024-11-09T14:25:59+01:00*%
%TF.ProjectId,pmw3610_breakout_for_roBa,706d7733-3631-4305-9f62-7265616b6f75,rev?*%
%TF.SameCoordinates,Original*%
%TF.FileFunction,Copper,L1,Top*%
%TF.FilePolarity,Positive*%
%FSLAX46Y46*%
G04 Gerber Fmt 4.6, Leading zero omitted, Abs format (unit mm)*
G04 Created by KiCad (PCBNEW 8.0.4) date 2024-11-09 14:25:59*
%MOMM*%
%LPD*%
G01*
G04 APERTURE LIST*
G04 Aperture macros list*
%AMRoundRect*
0 Rectangle with rounded corners*
0 $1 Rounding radius*
0 $2 $3 $4 $5 $6 $7 $8 $9 X,Y pos of 4 corners*
0 Add a 4 corners polygon primitive as box body*
4,1,4,$2,$3,$4,$5,$6,$7,$8,$9,$2,$3,0*
0 Add four circle primitives for the rounded corners*
1,1,$1+$1,$2,$3*
1,1,$1+$1,$4,$5*
1,1,$1+$1,$6,$7*
1,1,$1+$1,$8,$9*
0 Add four rect primitives between the rounded corners*
20,1,$1+$1,$2,$3,$4,$5,0*
20,1,$1+$1,$4,$5,$6,$7,0*
20,1,$1+$1,$6,$7,$8,$9,0*
20,1,$1+$1,$8,$9,$2,$3,0*%
G04 Aperture macros list end*
%TA.AperFunction,ComponentPad*%
%ADD10RoundRect,0.187500X-0.437500X0.437500X-0.437500X-0.437500X0.437500X-0.437500X0.437500X0.437500X0*%
%TD*%
%TA.AperFunction,ComponentPad*%
%ADD11O,1.250000X1.250000*%
%TD*%
%TA.AperFunction,SMDPad,CuDef*%
%ADD12R,1.800000X2.000000*%
%TD*%
%TA.AperFunction,SMDPad,CuDef*%
%ADD13R,0.400000X1.350000*%
%TD*%
%TA.AperFunction,ViaPad*%
%ADD14C,0.600000*%
%TD*%
%TA.AperFunction,Conductor*%
%ADD15C,0.500000*%
%TD*%
%TA.AperFunction,Conductor*%
%ADD16C,0.200000*%
%TD*%
G04 APERTURE END LIST*
D10*
%TO.P,U2,1,+VCSEL*%
%TO.N,Net-(U2-+VCSEL)*%
X130650000Y-81100000D03*
D11*
%TO.P,U2,2,SDIO*%
%TO.N,SDIO*%
X130650000Y-82880000D03*
%TO.P,U2,3,SCLK*%
%TO.N,SCLK*%
X130650000Y-84660000D03*
%TO.P,U2,4,NC*%
%TO.N,unconnected-(U2-NC-Pad4)*%
X130650000Y-86440000D03*
%TO.P,U2,5,NCS*%
%TO.N,NCS*%
X130650000Y-88220000D03*
%TO.P,U2,6,VDDIO*%
%TO.N,VCC*%
X130650000Y-90000000D03*
%TO.P,U2,7,NRESET*%
%TO.N,Net-(U2-NRESET)*%
X130650000Y-91780000D03*
%TO.P,U2,8,MOTION*%
%TO.N,MOTION*%
X130650000Y-93560000D03*
%TO.P,U2,9,VCP*%
%TO.N,Net-(U2-VCP)*%
X141350000Y-94450000D03*
%TO.P,U2,10,PASS_T*%
%TO.N,Net-(U2-+VCSEL)*%
X141350000Y-92670000D03*
%TO.P,U2,11,GND*%
%TO.N,GND*%
X141350000Y-90890000D03*
%TO.P,U2,12,CP*%
%TO.N,Net-(U2-CP)*%
X141350000Y-89110000D03*
%TO.P,U2,13,CN*%
%TO.N,Net-(U2-CN)*%
X141350000Y-87330000D03*
%TO.P,U2,14,VDD*%
%TO.N,+1V9*%
X141350000Y-85550000D03*
%TO.P,U2,15,XYLASER*%
%TO.N,Net-(U2--VCSEL)*%
X141350000Y-83770000D03*
%TO.P,U2,16,-VCSEL*%
X141350000Y-81990000D03*
%TD*%
D12*
%TO.P,J2,*%
%TO.N,*%
X131620000Y-100060000D03*
X140320000Y-100060000D03*
D13*
%TO.P,J2,1,SCLK*%
%TO.N,SCLK*%
X133220000Y-101060000D03*
%TO.P,J2,2,MISO*%
%TO.N,SDIO*%
X133720000Y-99060000D03*
%TO.P,J2,3,SPI_CS*%
%TO.N,NCS*%
X134220000Y-101060000D03*
%TO.P,J2,4,GP_AD2*%
%TO.N,unconnected-(J2-GP_AD2-Pad4)*%
X134720000Y-99060000D03*
%TO.P,J2,5,MOSI*%
%TO.N,MOTION*%
X135220000Y-101060000D03*
%TO.P,J2,6,GP_AD1*%
%TO.N,unconnected-(J2-GP_AD1-Pad6)*%
X135720000Y-99060000D03*
%TO.P,J2,7,5V*%
%TO.N,unconnected-(J2-5V-Pad7)*%
X136220000Y-101060000D03*
%TO.P,J2,8,RGB_DO*%
%TO.N,unconnected-(J2-RGB_DO-Pad8)*%
X136720000Y-99060000D03*
%TO.P,J2,9,SCL*%
%TO.N,unconnected-(J2-SCL-Pad9)*%
X137220000Y-101060000D03*
%TO.P,J2,10,SDA*%
%TO.N,unconnected-(J2-SDA-Pad10)*%
X137720000Y-99060000D03*
%TO.P,J2,11,GND*%
%TO.N,GND*%
X138220000Y-101060000D03*
%TO.P,J2,12,3V3*%
%TO.N,VCC*%
X138720000Y-99060000D03*
%TD*%
D14*
%TO.N,VCC*%
X143580000Y-91630000D03*
X126920000Y-91860000D03*
X143580000Y-96500000D03*
%TO.N,GND*%
X146376410Y-88106410D03*
X146470000Y-84590000D03*
X139420000Y-102500000D03*
X142820000Y-88910000D03*
%TO.N,+1V9*%
X142700000Y-90775000D03*
X143860000Y-85055000D03*
X142830000Y-95550000D03*
X144380000Y-87820000D03*
%TO.N,Net-(U2-+VCSEL)*%
X141300000Y-95750000D03*
X126900553Y-94917562D03*
%TO.N,Net-(U2-NRESET)*%
X129070000Y-89020000D03*
%TO.N,MOTION*%
X134665861Y-102170379D03*
X130190000Y-97540000D03*
X130120000Y-98800000D03*
%TO.N,SCLK*%
X127820000Y-93150000D03*
X127198528Y-95660000D03*
%TO.N,NCS*%
X128700000Y-93070000D03*
X128520000Y-100070000D03*
X129770000Y-100040000D03*
X129720000Y-96840000D03*
%TD*%
D15*
%TO.N,VCC*%
X143580000Y-96500000D02*
X136860000Y-96500000D01*
X131160000Y-96500000D02*
X136860000Y-96500000D01*
X126920000Y-93310661D02*
X127799339Y-94190000D01*
X128850000Y-94190000D02*
X131160000Y-96500000D01*
X138720000Y-98360000D02*
X138720000Y-99060000D01*
X136860000Y-96500000D02*
X138720000Y-98360000D01*
X127799339Y-94190000D02*
X128850000Y-94190000D01*
X143580000Y-91630000D02*
X143580000Y-96500000D01*
X126920000Y-91860000D02*
X126920000Y-93310661D01*
D16*
%TO.N,GND*%
X138220000Y-101300000D02*
X138220000Y-101060000D01*
D15*
X139420000Y-102500000D02*
X138220000Y-101300000D01*
%TO.N,+1V9*%
X142830000Y-90905000D02*
X142830000Y-95550000D01*
X143860000Y-85055000D02*
X143860000Y-87300000D01*
X142700000Y-90775000D02*
X142830000Y-90905000D01*
X143860000Y-87300000D02*
X144380000Y-87820000D01*
D16*
X141350000Y-85520000D02*
X141380000Y-85490000D01*
X141350000Y-85550000D02*
X141350000Y-85520000D01*
%TO.N,Net-(U2-+VCSEL)*%
X125460000Y-93477009D02*
X125460000Y-85488628D01*
X129848628Y-81100000D02*
X130650000Y-81100000D01*
X142275000Y-93595000D02*
X141350000Y-92670000D01*
X141358148Y-95750000D02*
X142275000Y-94833148D01*
X141300000Y-95750000D02*
X141358148Y-95750000D01*
X126900553Y-94917562D02*
X125460000Y-93477009D01*
X142275000Y-94833148D02*
X142275000Y-93595000D01*
X125460000Y-85488628D02*
X129848628Y-81100000D01*
%TO.N,Net-(U2-NRESET)*%
X129070000Y-90200000D02*
X130650000Y-91780000D01*
X129070000Y-89020000D02*
X129070000Y-90200000D01*
%TO.N,Net-(U2--VCSEL)*%
X141350000Y-81990000D02*
X141350000Y-83770000D01*
%TO.N,MOTION*%
X134665861Y-102170379D02*
X135220000Y-101616240D01*
X130190000Y-97540000D02*
X130120000Y-97610000D01*
X130120000Y-97610000D02*
X130120000Y-98800000D01*
X135220000Y-101616240D02*
X135220000Y-101060000D01*
%TO.N,SCLK*%
X127447057Y-95908529D02*
X128650003Y-95908529D01*
X126610000Y-85470000D02*
X126610000Y-90461471D01*
X129120000Y-101250000D02*
X129800000Y-101930000D01*
X127830000Y-93140000D02*
X127820000Y-93150000D01*
X132350000Y-101930000D02*
X133220000Y-101060000D01*
X130650000Y-84660000D02*
X127420000Y-84660000D01*
X128650003Y-95908529D02*
X129120000Y-96378526D01*
X127420000Y-84660000D02*
X126610000Y-85470000D01*
X127198528Y-95660000D02*
X127447057Y-95908529D01*
X127830000Y-91681471D02*
X127830000Y-93140000D01*
X129120000Y-96378526D02*
X129120000Y-101250000D01*
X129800000Y-101930000D02*
X132350000Y-101930000D01*
X126610000Y-90461471D02*
X127830000Y-91681471D01*
%TO.N,SDIO*%
X128634314Y-82880000D02*
X130650000Y-82880000D01*
X128061521Y-95230000D02*
X126020000Y-93188479D01*
X132210000Y-98360000D02*
X129080000Y-95230000D01*
X133020000Y-98360000D02*
X132210000Y-98360000D01*
X126020000Y-93188479D02*
X126020000Y-85494314D01*
X129080000Y-95230000D02*
X128061521Y-95230000D01*
X126020000Y-85494314D02*
X128634314Y-82880000D01*
X133720000Y-99060000D02*
X133020000Y-98360000D01*
%TO.N,NCS*%
X129720000Y-96840000D02*
X129520000Y-97040000D01*
X128520000Y-101215686D02*
X129864314Y-102560000D01*
X129520000Y-99790000D02*
X129770000Y-100040000D01*
X128350000Y-92720000D02*
X128350000Y-88530000D01*
X133195000Y-102560000D02*
X134220000Y-101535000D01*
X129864314Y-102560000D02*
X133195000Y-102560000D01*
X128520000Y-100070000D02*
X128520000Y-101215686D01*
X128660000Y-88220000D02*
X130650000Y-88220000D01*
X129520000Y-97040000D02*
X129520000Y-99790000D01*
X128700000Y-93070000D02*
X128350000Y-92720000D01*
X128350000Y-88530000D02*
X128660000Y-88220000D01*
X134220000Y-101535000D02*
X134220000Y-101060000D01*
%TD*%
%TA.AperFunction,Conductor*%
%TO.N,GND*%
G36*
X146001509Y-80000037D02*
G01*
X146007232Y-80000177D01*
X146087583Y-80002145D01*
X146108728Y-80004490D01*
X146279013Y-80038362D01*
X146302261Y-80045413D01*
X146461257Y-80111272D01*
X146482689Y-80122728D01*
X146615817Y-80211681D01*
X146625775Y-80218335D01*
X146644565Y-80233756D01*
X146766243Y-80355434D01*
X146781664Y-80374224D01*
X146877269Y-80517307D01*
X146888728Y-80538745D01*
X146954583Y-80697731D01*
X146961639Y-80720993D01*
X146995508Y-80891266D01*
X146997854Y-80912419D01*
X146999963Y-80998488D01*
X147000000Y-81001526D01*
X147000000Y-102498473D01*
X146999963Y-102501511D01*
X146997854Y-102587580D01*
X146995508Y-102608733D01*
X146961639Y-102779006D01*
X146954583Y-102802268D01*
X146888728Y-102961254D01*
X146877269Y-102982692D01*
X146781664Y-103125775D01*
X146766243Y-103144565D01*
X146644565Y-103266243D01*
X146625775Y-103281664D01*
X146482692Y-103377269D01*
X146461254Y-103388728D01*
X146302268Y-103454583D01*
X146279006Y-103461639D01*
X146108733Y-103495508D01*
X146087580Y-103497854D01*
X146004250Y-103499895D01*
X146001509Y-103499963D01*
X145998473Y-103500000D01*
X126001527Y-103500000D01*
X125998490Y-103499963D01*
X125912420Y-103497854D01*
X125891266Y-103495508D01*
X125720993Y-103461639D01*
X125697731Y-103454583D01*
X125538745Y-103388728D01*
X125517307Y-103377269D01*
X125374224Y-103281664D01*
X125355434Y-103266243D01*
X125233756Y-103144565D01*
X125218335Y-103125775D01*
X125194858Y-103090639D01*
X125122728Y-102982689D01*
X125111271Y-102961254D01*
X125045413Y-102802261D01*
X125038362Y-102779013D01*
X125004490Y-102608728D01*
X125002145Y-102587583D01*
X125000037Y-102501509D01*
X125000000Y-102498473D01*
X125000000Y-94165606D01*
X125019685Y-94098567D01*
X125072489Y-94052812D01*
X125141647Y-94042868D01*
X125205203Y-94071893D01*
X125211681Y-94077925D01*
X126069851Y-94936095D01*
X126103336Y-94997418D01*
X126105390Y-95009892D01*
X126115183Y-95096811D01*
X126174763Y-95267083D01*
X126174764Y-95267084D01*
X126270737Y-95419824D01*
X126362682Y-95511769D01*
X126396166Y-95573093D01*
X126398221Y-95613332D01*
X126392963Y-95660004D01*
X126413158Y-95839249D01*
X126413159Y-95839254D01*
X126472739Y-96009523D01*
X126568712Y-96162262D01*
X126696266Y-96289816D01*
X126849006Y-96385789D01*
X127019273Y-96445368D01*
X127019278Y-96445369D01*
X127134706Y-96458374D01*
X127198528Y-96465565D01*
X127198529Y-96465564D01*
X127201823Y-96465936D01*
X127220021Y-96469378D01*
X127368000Y-96509029D01*
X127526114Y-96509029D01*
X128349906Y-96509029D01*
X128416945Y-96528714D01*
X128437587Y-96545348D01*
X128483181Y-96590942D01*
X128516666Y-96652265D01*
X128519500Y-96678623D01*
X128519500Y-99153677D01*
X128499815Y-99220716D01*
X128447011Y-99266471D01*
X128409384Y-99276897D01*
X128340750Y-99284630D01*
X128170478Y-99344210D01*
X128017737Y-99440184D01*
X127890184Y-99567737D01*
X127794211Y-99720476D01*
X127734631Y-99890745D01*
X127734630Y-99890750D01*
X127714435Y-100069996D01*
X127714435Y-100070003D01*
X127734630Y-100249249D01*
X127734631Y-100249254D01*
X127794211Y-100419523D01*
X127890185Y-100572263D01*
X127892445Y-100575097D01*
X127893334Y-100577275D01*
X127893889Y-100578158D01*
X127893734Y-100578255D01*
X127918855Y-100639783D01*
X127919500Y-100652412D01*
X127919500Y-101129016D01*
X127919499Y-101129034D01*
X127919499Y-101294740D01*
X127919498Y-101294740D01*
X127960423Y-101447471D01*
X127989358Y-101497586D01*
X127989359Y-101497590D01*
X127989360Y-101497590D01*
X128025680Y-101560500D01*
X128039479Y-101584400D01*
X128039481Y-101584403D01*
X128158349Y-101703271D01*
X128158355Y-101703276D01*
X129379453Y-102924374D01*
X129379463Y-102924385D01*
X129383793Y-102928715D01*
X129383794Y-102928716D01*
X129495598Y-103040520D01*
X129582409Y-103090639D01*
X129582411Y-103090641D01*
X129620465Y-103112611D01*
X129632529Y-103119577D01*
X129785257Y-103160500D01*
X133108331Y-103160500D01*
X133108347Y-103160501D01*
X133115943Y-103160501D01*
X133274054Y-103160501D01*
X133274057Y-103160501D01*
X133426785Y-103119577D01*
X133476904Y-103090639D01*
X133563716Y-103040520D01*
X133675520Y-102928716D01*
X133675520Y-102928714D01*
X133685728Y-102918507D01*
X133685730Y-102918504D01*
X133896138Y-102708096D01*
X133957461Y-102674611D01*
X134027153Y-102679595D01*
X134071500Y-102708096D01*
X134163599Y-102800195D01*
X134316339Y-102896168D01*
X134409356Y-102928716D01*
X134486606Y-102955747D01*
X134486611Y-102955748D01*
X134665857Y-102975944D01*
X134665861Y-102975944D01*
X134665865Y-102975944D01*
X134845110Y-102955748D01*
X134845113Y-102955747D01*
X134845116Y-102955747D01*
X135015383Y-102896168D01*
X135168123Y-102800195D01*
X135295677Y-102672641D01*
X135391650Y-102519901D01*
X135451229Y-102349634D01*
X135453533Y-102329175D01*
X135480598Y-102264763D01*
X135533420Y-102226876D01*
X135662331Y-102178796D01*
X135662332Y-102178794D01*
X135670641Y-102175696D01*
X135671286Y-102177425D01*
X135728837Y-102164902D01*
X135768988Y-102176691D01*
X135769360Y-102175696D01*
X135777666Y-102178794D01*
X135777669Y-102178796D01*
X135896535Y-102223130D01*
X135911192Y-102228597D01*
X135912517Y-102229091D01*
X135972127Y-102235500D01*
X136467872Y-102235499D01*
X136527483Y-102229091D01*
X136662331Y-102178796D01*
X136662333Y-102178794D01*
X136670640Y-102175696D01*
X136671285Y-102177426D01*
X136728837Y-102164902D01*
X136768988Y-102176691D01*
X136769360Y-102175696D01*
X136777666Y-102178794D01*
X136777669Y-102178796D01*
X136896535Y-102223130D01*
X136911192Y-102228597D01*
X136912517Y-102229091D01*
X136972127Y-102235500D01*
X137467872Y-102235499D01*
X137527483Y-102229091D01*
X137662331Y-102178796D01*
X137662333Y-102178794D01*
X137670640Y-102175696D01*
X137671225Y-102177265D01*
X137729367Y-102164616D01*
X137769207Y-102176312D01*
X137769602Y-102175253D01*
X137912623Y-102228597D01*
X137912627Y-102228598D01*
X137972155Y-102234999D01*
X137972172Y-102235000D01*
X138467828Y-102235000D01*
X138467844Y-102234999D01*
X138527372Y-102228598D01*
X138527379Y-102228596D01*
X138662086Y-102178354D01*
X138662093Y-102178350D01*
X138777186Y-102092191D01*
X138859453Y-101982295D01*
X138024838Y-101147680D01*
X137991353Y-101086357D01*
X137996337Y-101016665D01*
X138024838Y-100972318D01*
X138132318Y-100864838D01*
X138193641Y-100831353D01*
X138263333Y-100836337D01*
X138307680Y-100864838D01*
X138919999Y-101477157D01*
X138989619Y-101448319D01*
X138992489Y-101445833D01*
X139061647Y-101435889D01*
X139118312Y-101459361D01*
X139177668Y-101503795D01*
X139177671Y-101503797D01*
X139312517Y-101554091D01*
X139312516Y-101554091D01*
X139319444Y-101554835D01*
X139372127Y-101560500D01*
X141267872Y-101560499D01*
X141327483Y-101554091D01*
X141462331Y-101503796D01*
X141577546Y-101417546D01*
X141663796Y-101302331D01*
X141714091Y-101167483D01*
X141720500Y-101107873D01*
X141720499Y-99012128D01*
X141714091Y-98952517D01*
X141663796Y-98817669D01*
X141663795Y-98817668D01*
X141663793Y-98817664D01*
X141577547Y-98702455D01*
X141577544Y-98702452D01*
X141462335Y-98616206D01*
X141462328Y-98616202D01*
X141327482Y-98565908D01*
X141327483Y-98565908D01*
X141267883Y-98559501D01*
X141267881Y-98559500D01*
X141267873Y-98559500D01*
X141267865Y-98559500D01*
X139594500Y-98559500D01*
X139527461Y-98539815D01*
X139481706Y-98487011D01*
X139470500Y-98435500D01*
X139470500Y-98286079D01*
X139441659Y-98141092D01*
X139441658Y-98141091D01*
X139441658Y-98141087D01*
X139426818Y-98105259D01*
X139385087Y-98004511D01*
X139385080Y-98004498D01*
X139302952Y-97881585D01*
X139250725Y-97829358D01*
X139198416Y-97777049D01*
X138883548Y-97462181D01*
X138850063Y-97400858D01*
X138855047Y-97331166D01*
X138896919Y-97275233D01*
X138962383Y-97250816D01*
X138971229Y-97250500D01*
X143280028Y-97250500D01*
X143320982Y-97257457D01*
X143371781Y-97275233D01*
X143400745Y-97285368D01*
X143400750Y-97285369D01*
X143579996Y-97305565D01*
X143580000Y-97305565D01*
X143580004Y-97305565D01*
X143759249Y-97285369D01*
X143759252Y-97285368D01*
X143759255Y-97285368D01*
X143929522Y-97225789D01*
X144082262Y-97129816D01*
X144209816Y-97002262D01*
X144305789Y-96849522D01*
X144365368Y-96679255D01*
X144365369Y-96679249D01*
X144385565Y-96500003D01*
X144385565Y-96499996D01*
X144365368Y-96320747D01*
X144365368Y-96320745D01*
X144337458Y-96240982D01*
X144330500Y-96200028D01*
X144330500Y-91929972D01*
X144337458Y-91889017D01*
X144365368Y-91809254D01*
X144365369Y-91809249D01*
X144385565Y-91630003D01*
X144385565Y-91629996D01*
X144365369Y-91450750D01*
X144365368Y-91450745D01*
X144305788Y-91280476D01*
X144245772Y-91184962D01*
X144209816Y-91127738D01*
X144082262Y-91000184D01*
X143929523Y-90904211D01*
X143759254Y-90844631D01*
X143759249Y-90844630D01*
X143669212Y-90834486D01*
X143604798Y-90807420D01*
X143565242Y-90749825D01*
X143561480Y-90735469D01*
X143551658Y-90686087D01*
X143514237Y-90595745D01*
X143495086Y-90549509D01*
X143495085Y-90549507D01*
X143462186Y-90500270D01*
X143462185Y-90500268D01*
X143449456Y-90481217D01*
X143435517Y-90453281D01*
X143435199Y-90452373D01*
X143425789Y-90425478D01*
X143329816Y-90272738D01*
X143202262Y-90145184D01*
X143165083Y-90121823D01*
X143049523Y-90049211D01*
X142879254Y-89989631D01*
X142879249Y-89989630D01*
X142700004Y-89969435D01*
X142699996Y-89969435D01*
X142520750Y-89989630D01*
X142520745Y-89989631D01*
X142350470Y-90049213D01*
X142344205Y-90052231D01*
X142343321Y-90050395D01*
X142285650Y-90066680D01*
X142218819Y-90046300D01*
X142173615Y-89993023D01*
X142164391Y-89923765D01*
X142187983Y-89867963D01*
X142311019Y-89705038D01*
X142403994Y-89518319D01*
X142461076Y-89317696D01*
X142480322Y-89110000D01*
X142461076Y-88902304D01*
X142403994Y-88701681D01*
X142311019Y-88514962D01*
X142185318Y-88348507D01*
X142144873Y-88311637D01*
X142108592Y-88251927D01*
X142110351Y-88182080D01*
X142144874Y-88128362D01*
X142145205Y-88128060D01*
X142185318Y-88091493D01*
X142311019Y-87925038D01*
X142403994Y-87738319D01*
X142461076Y-87537696D01*
X142480322Y-87330000D01*
X142461076Y-87122304D01*
X142403994Y-86921681D01*
X142311019Y-86734962D01*
X142185318Y-86568507D01*
X142144873Y-86531637D01*
X142108592Y-86471927D01*
X142110351Y-86402080D01*
X142144874Y-86348362D01*
X142185318Y-86311493D01*
X142311019Y-86145038D01*
X142403994Y-85958319D01*
X142461076Y-85757696D01*
X142480322Y-85550000D01*
X142461076Y-85342304D01*
X142403994Y-85141681D01*
X142360830Y-85054996D01*
X143054435Y-85054996D01*
X143054435Y-85055003D01*
X143074630Y-85234249D01*
X143074631Y-85234254D01*
X143102542Y-85314017D01*
X143109500Y-85354972D01*
X143109500Y-87373918D01*
X143109500Y-87373920D01*
X143109499Y-87373920D01*
X143138340Y-87518907D01*
X143138343Y-87518917D01*
X143194914Y-87655492D01*
X143194915Y-87655494D01*
X143194916Y-87655495D01*
X143217544Y-87689361D01*
X143227812Y-87704727D01*
X143227813Y-87704730D01*
X143277046Y-87778414D01*
X143277052Y-87778421D01*
X143626692Y-88128060D01*
X143649356Y-88164129D01*
X143651188Y-88163247D01*
X143654207Y-88169516D01*
X143735073Y-88298213D01*
X143750184Y-88322262D01*
X143877738Y-88449816D01*
X143879532Y-88450943D01*
X143981415Y-88514961D01*
X144030478Y-88545789D01*
X144200745Y-88605368D01*
X144200750Y-88605369D01*
X144379996Y-88625565D01*
X144380000Y-88625565D01*
X144380004Y-88625565D01*
X144559249Y-88605369D01*
X144559252Y-88605368D01*
X144559255Y-88605368D01*
X144729522Y-88545789D01*
X144882262Y-88449816D01*
X145009816Y-88322262D01*
X145105789Y-88169522D01*
X145165368Y-87999255D01*
X145182040Y-87851286D01*
X145185565Y-87820003D01*
X145185565Y-87819996D01*
X145165369Y-87640750D01*
X145165368Y-87640745D01*
X145140693Y-87570227D01*
X145105789Y-87470478D01*
X145009816Y-87317738D01*
X144882262Y-87190184D01*
X144729522Y-87094211D01*
X144729516Y-87094207D01*
X144723247Y-87091188D01*
X144724129Y-87089356D01*
X144688060Y-87066692D01*
X144646819Y-87025451D01*
X144613334Y-86964128D01*
X144610500Y-86937770D01*
X144610500Y-85354972D01*
X144617458Y-85314017D01*
X144637464Y-85256843D01*
X144645368Y-85234255D01*
X144645369Y-85234249D01*
X144665565Y-85055003D01*
X144665565Y-85054996D01*
X144645369Y-84875750D01*
X144645368Y-84875745D01*
X144644876Y-84874340D01*
X144585789Y-84705478D01*
X144577274Y-84691927D01*
X144546582Y-84643080D01*
X144489816Y-84552738D01*
X144362262Y-84425184D01*
X144209523Y-84329211D01*
X144039254Y-84269631D01*
X144039249Y-84269630D01*
X143860004Y-84249435D01*
X143859996Y-84249435D01*
X143680750Y-84269630D01*
X143680745Y-84269631D01*
X143510476Y-84329211D01*
X143357737Y-84425184D01*
X143230184Y-84552737D01*
X143134211Y-84705476D01*
X143074631Y-84875745D01*
X143074630Y-84875750D01*
X143054435Y-85054996D01*
X142360830Y-85054996D01*
X142311019Y-84954962D01*
X142185318Y-84788507D01*
X142144873Y-84751637D01*
X142108592Y-84691927D01*
X142110351Y-84622080D01*
X142144874Y-84568362D01*
X142162014Y-84552737D01*
X142185318Y-84531493D01*
X142311019Y-84365038D01*
X142403994Y-84178319D01*
X142461076Y-83977696D01*
X142480322Y-83770000D01*
X142461076Y-83562304D01*
X142403994Y-83361681D01*
X142311019Y-83174962D01*
X142185318Y-83008507D01*
X142144873Y-82971637D01*
X142108592Y-82911927D01*
X142110351Y-82842080D01*
X142144874Y-82788362D01*
X142185318Y-82751493D01*
X142311019Y-82585038D01*
X142403994Y-82398319D01*
X142461076Y-82197696D01*
X142480322Y-81990000D01*
X142461076Y-81782304D01*
X142403994Y-81581681D01*
X142311019Y-81394962D01*
X142185318Y-81228507D01*
X142031171Y-81087984D01*
X141853828Y-80978177D01*
X141853827Y-80978176D01*
X141684087Y-80912419D01*
X141659327Y-80902827D01*
X141454293Y-80864500D01*
X141245707Y-80864500D01*
X141040673Y-80902827D01*
X141040670Y-80902827D01*
X141040670Y-80902828D01*
X140846172Y-80978176D01*
X140846171Y-80978177D01*
X140668830Y-81087983D01*
X140576338Y-81172300D01*
X140513533Y-81202916D01*
X140444146Y-81194718D01*
X140390206Y-81150308D01*
X140368839Y-81083786D01*
X140368800Y-81080662D01*
X140368800Y-80124000D01*
X140388485Y-80056961D01*
X140441289Y-80011206D01*
X140492800Y-80000000D01*
X145998473Y-80000000D01*
X146001509Y-80000037D01*
G37*
%TD.AperFunction*%
%TD*%
M02*
